<svg xmlns="http://www.w3.org/2000/svg" fill="none" viewBox="0 0 49 49">
	<path fill="#200E32"
		d="M38.3156 18.0002c.3988 0 .7606.174 1.0465.468.2665.314.4007.704.3618 1.1159 0 .136-1.0659 13.6159-1.6748 19.2899-.3812 3.4819-2.6258 5.5959-5.9928 5.6539-2.589.058-5.1195.078-7.6112.078-2.6454 0-5.2323-.02-7.7435-.078-3.2541-.078-5.5007-2.23-5.8625-5.6539-.6263-5.694-1.6728-19.1539-1.6923-19.2899-.0194-.4119.1128-.8019.3813-1.1159.2645-.294.6458-.468 1.0464-.468h27.7411zM28.567 4.6059c1.7681 0 3.3475 1.234 3.8046 2.994l.3268 1.46c.2645 1.1899 1.2954 2.0319 2.4819 2.0319h5.8314c.7781 0 1.4258.646 1.4258 1.468v.76c0 .802-.6477 1.468-1.4258 1.468H7.8652c-.78 0-1.4277-.666-1.4277-1.468v-.76c0-.822.6477-1.468 1.4277-1.468h5.8314c1.1846 0 2.2155-.842 2.482-2.03l.3054-1.364c.4746-1.858 2.0365-3.0919 3.824-3.0919h8.259z" />
</svg>