<svg xmlns="http://www.w3.org/2000/svg" fill="none" viewBox="0 0 48 48">
	<path fill="#200E32"
		d="M33.32 4.0002c6.8 0 10.68 3.84 10.68 10.66v18.68c0 6.78-3.86 10.66-10.66 10.66H14.66c-6.82 0-10.66-3.88-10.66-10.66v-18.68c0-6.82 3.84-10.66 10.66-10.66h18.66zm-9.34 11.02c-.92 0-1.66.74-1.66 1.66v5.64h-5.66c-.44 0-.86.18-1.18.48-.3.32-.48.738-.48 1.18 0 .92.74 1.66 1.66 1.68h5.66v5.66c0 .92.74 1.66 1.66 1.66.92 0 1.66-.74 1.66-1.66v-5.66h5.68c.92-.02 1.66-.76 1.66-1.68 0-.92-.74-1.66-1.66-1.66h-5.68v-5.64c0-.92-.74-1.66-1.66-1.66z" />
</svg>