<svg xmlns="http://www.w3.org/2000/svg" fill="none" viewBox="0 0 49 49">
	<path fill="#200E32"
		d="M24.463 4.7627c5.3599 0 9.7665 4.2118 9.9901 9.5486h-.0522a1.0059 1.0059 0 01-.0871.4514h.3122c2.4341 0 4.9828 1.687 6.0048 5.7596l.1111.4805 1.5377 12.3894c1.1067 7.902-3.2166 11.2251-9.1141 11.3658l-.3954.0047H16.1902c-5.9935 0-10.612-2.1841-9.5965-10.8329l.0692-.5376 1.5555-12.3894c.767-4.3857 3.3419-6.1156 5.823-6.2336l.2752-.0065h.1563a1.2963 1.2963 0 010-.4514c.2237-5.3368 4.6302-9.5486 9.9901-9.5486zm-5.8159 16.6586c-.9762 0-1.7676.8145-1.7676 1.8193 0 1.0047.7914 1.8192 1.7676 1.8192.9762 0 1.7676-.8145 1.7676-1.8192l-.0138-.2282c-.109-.8971-.8527-1.5911-1.7538-1.5911zm11.5777 0c-.9762 0-1.7676.8145-1.7676 1.8193 0 1.0047.7914 1.8192 1.7676 1.8192.9762 0 1.7675-.8145 1.7675-1.8192 0-1.0048-.7913-1.8193-1.7675-1.8193zM24.3846 7.3675c-3.8482 0-6.9678 3.1088-6.9678 6.9438a1.2963 1.2963 0 010 .4514h14.0227a1.3005 1.3005 0 01-.0871-.4514c0-3.835-3.1196-6.9438-6.9678-6.9438z" />
</svg>